<?xml version="1.0" encoding="UTF-8"?>
<svg xmlns="http://www.w3.org/2000/svg" viewBox="0 0 226.77 311.81">
  <defs>
    <style>
      .cls-1 {
        letter-spacing: -.01em;
      }

      .cls-2 {
        letter-spacing: 0em;
      }

      .cls-3 {
        letter-spacing: 0em;
      }

      .cls-4 {
        letter-spacing: -.01em;
      }

      .cls-5 {
        letter-spacing: -.02em;
      }

      .cls-6 {
        letter-spacing: .03em;
      }

      .cls-7 {
        letter-spacing: -.01em;
      }

      .cls-8 {
        letter-spacing: 0em;
      }

      .cls-9 {
        font-size: 16px;
      }

      .cls-9, .cls-10 {
        font-family: Biotif-SemiBold, Biotif;
        font-weight: 600;
      }

      .cls-9, .cls-10, .cls-11 {
        fill: #1c2126;
      }

      .cls-10 {
        font-size: 8px;
      }

      .cls-12 {
        letter-spacing: .01em;
      }

      .cls-11 {
        stroke-width: 0px;
      }

      .cls-13 {
        letter-spacing: -.01em;
      }

      .cls-14 {
        fill: none;
        stroke: #ed1c24;
        stroke-miterlimit: 10;
        stroke-width: .5px;
      }
    </style>
  </defs>
  <g id="Background">
    <text class="cls-9" transform="translate(56.65 196.22)"><tspan class="cls-1" x="0" y="0">Home A</tspan><tspan class="cls-4" x="58.24" y="0">s</tspan><tspan class="cls-7" x="65.41" y="0">s</tspan><tspan class="cls-1" x="72.61" y="0">i</tspan><tspan class="cls-5" x="76.48" y="0">s</tspan><tspan class="cls-13" x="83.63" y="0">t</tspan><tspan class="cls-1" x="89.36" y="0">a</tspan><tspan class="cls-5" x="97.67" y="0">n</tspan><tspan class="cls-1" x="106.76" y="0">t</tspan></text>
    <g>
      <path class="cls-11" d="m59.76,205.88c.4,0,.77.07,1.11.22s.64.36.88.62.43.58.57.95.2.76.2,1.18c0,.56-.11,1.07-.35,1.53s-.57.81-.99,1.07-.9.38-1.43.38c-.53,0-1.01-.13-1.43-.38s-.74-.61-.97-1.06-.35-.96-.35-1.54c0-.56.11-1.07.34-1.52s.56-.81.99-1.07.9-.39,1.43-.38Zm0,5.28c.6,0,1.09-.21,1.47-.64s.57-.98.57-1.66-.19-1.25-.57-1.67-.87-.64-1.47-.64-1.1.21-1.48.64-.56.98-.56,1.67.19,1.24.57,1.67.87.64,1.48.64Z"/>
      <path class="cls-11" d="m65.51,211.83c-.31,0-.59-.07-.85-.2s-.45-.31-.58-.55v2.37h-.62v-5.61h.57l.04.66c.12-.24.31-.43.56-.56s.54-.2.87-.2c.56,0,1.01.19,1.35.56s.51.87.51,1.48-.17,1.11-.51,1.48-.79.57-1.34.57Zm1.18-2.05c0-.44-.12-.79-.35-1.05s-.54-.4-.93-.4-.71.13-.94.4-.35.62-.35,1.05.12.79.35,1.05.54.4.94.4.69-.13.93-.4.35-.62.35-1.05Z"/>
      <path class="cls-11" d="m71.78,210.08h-3.14c.03.38.16.67.39.88s.52.31.87.31c.27,0,.51-.06.71-.19s.36-.31.47-.54l.55.23c-.16.34-.39.61-.69.79s-.66.28-1.05.28c-.56,0-1.01-.19-1.36-.56s-.52-.87-.52-1.47.17-1.1.52-1.49.81-.58,1.38-.58,1.02.19,1.36.56.52.87.52,1.49v.3Zm-3.14-.49h2.46c-.02-.41-.13-.73-.35-.96s-.5-.34-.86-.34-.65.11-.87.34-.35.55-.38.96Z"/>
      <path class="cls-11" d="m76.13,209.35v2.38h-.66v-2.29c0-.41-.1-.69-.29-.86-.2-.17-.44-.25-.71-.25-.34,0-.61.11-.82.32s-.31.51-.31.88v2.19h-.65v-3.89h.61l.02.52c.11-.19.29-.34.52-.46s.48-.17.77-.17c.47,0,.85.14,1.12.41s.41.68.41,1.2Z"/>
      <path class="cls-11" d="m80.64,211.29c.25,0,.44-.05.59-.15.15-.1.22-.25.22-.46,0-.28-.18-.46-.55-.56l-.59-.16c-.7-.18-1.04-.55-1.04-1.09,0-.33.12-.6.38-.82s.58-.32.99-.32c.37,0,.69.09.94.26.26.17.41.41.45.71l-.58.14c-.02-.17-.1-.3-.25-.4-.15-.1-.33-.15-.54-.15s-.4.05-.54.16c-.13.11-.2.25-.2.43,0,.14.05.26.14.35.1.09.24.16.44.22l.58.16c.33.08.59.22.76.4.17.18.26.41.26.68,0,.35-.13.63-.39.84s-.62.31-1.07.31c-.41,0-.75-.09-1.01-.28-.26-.18-.41-.43-.46-.74l.59-.11c.03.18.12.32.27.42.15.11.35.16.59.16Z"/>
      <path class="cls-11" d="m84.72,207.74c.58,0,1.06.19,1.42.58.37.39.55.88.55,1.46s-.18,1.07-.55,1.46c-.37.39-.84.59-1.42.59s-1.05-.2-1.42-.59c-.37-.39-.55-.88-.55-1.46s.19-1.07.55-1.46c.37-.39.84-.58,1.42-.58Zm0,3.5c.4,0,.71-.14.95-.41.24-.28.36-.63.36-1.05s-.12-.76-.36-1.04c-.23-.28-.55-.41-.95-.41s-.71.14-.95.41c-.24.28-.36.62-.36,1.04s.12.77.36,1.05c.24.27.55.41.95.41Z"/>
      <path class="cls-11" d="m90.39,211.74c-.04-.2-.06-.38-.07-.54-.11.2-.28.36-.5.47-.22.11-.47.17-.76.17-.43,0-.79-.13-1.1-.39-.3-.27-.46-.68-.46-1.25v-2.35h.66v2.25c0,.39.09.68.28.87.19.19.43.28.73.28.33,0,.6-.11.81-.33.21-.22.31-.51.31-.87v-2.21h.66v3.18c0,.24.03.48.07.71h-.66Z"/>
      <path class="cls-11" d="m93.84,207.79c.13,0,.27.02.41.05v.61c-.14-.03-.28-.05-.41-.05-.33,0-.59.1-.78.31-.19.21-.28.5-.28.86v2.16h-.66v-3.89h.62l.03.49c.08-.17.22-.31.42-.4.19-.1.42-.14.67-.14Z"/>
      <path class="cls-11" d="m96.5,207.74c.42,0,.79.1,1.1.31s.53.48.67.84l-.58.23c-.08-.24-.23-.43-.45-.57-.21-.14-.46-.21-.74-.21-.39,0-.7.13-.94.4-.24.27-.35.62-.35,1.06s.12.79.36,1.05c.24.27.55.4.93.4.27,0,.51-.07.73-.21.21-.14.37-.33.46-.57l.57.23c-.15.36-.38.65-.69.85-.31.2-.67.3-1.08.3-.59,0-1.06-.19-1.41-.56s-.53-.87-.53-1.48.18-1.11.54-1.49c.36-.38.83-.57,1.42-.57Z"/>
      <path class="cls-11" d="m102.7,210.08h-3.14c.03.38.16.67.39.88.23.21.52.31.87.31.27,0,.51-.06.71-.19.2-.13.36-.31.47-.54l.55.23c-.16.34-.39.61-.69.79-.31.19-.66.28-1.05.28-.56,0-1.01-.19-1.36-.56s-.52-.87-.52-1.47.17-1.1.52-1.49.81-.58,1.38-.58,1.02.19,1.36.56c.35.37.52.87.52,1.49v.3Zm-3.14-.49h2.46c-.02-.41-.13-.73-.35-.96-.22-.23-.5-.34-.86-.34s-.65.11-.87.34-.35.55-.38.96Z"/>
      <path class="cls-11" d="m109.34,209.4v2.34h-.66v-2.2c0-.8-.36-1.2-1.07-1.2-.32,0-.6.11-.82.34-.22.23-.34.53-.34.91v2.14h-.65v-5.86h.66v2.5c.12-.2.3-.35.53-.47.23-.11.47-.17.75-.17.5,0,.89.14,1.17.42s.43.69.43,1.25Z"/>
      <path class="cls-11" d="m112.11,207.74c.58,0,1.06.19,1.42.58.37.39.55.88.55,1.46s-.18,1.07-.55,1.46c-.37.39-.84.59-1.42.59s-1.05-.2-1.42-.59c-.37-.39-.55-.88-.55-1.46s.19-1.07.55-1.46c.37-.39.84-.58,1.42-.58Zm0,3.5c.4,0,.71-.14.95-.41.24-.28.36-.63.36-1.05s-.12-.76-.36-1.04c-.23-.28-.55-.41-.95-.41s-.71.14-.95.41c-.24.28-.36.62-.36,1.04s.12.77.36,1.05c.24.27.55.41.95.41Z"/>
      <path class="cls-11" d="m120.72,209.22v2.51h-.63v-2.41c0-.32-.08-.57-.24-.74-.16-.18-.38-.27-.67-.27s-.54.1-.71.29-.27.45-.27.76v2.37h-.65v-2.43c0-.32-.08-.56-.24-.74-.16-.18-.39-.26-.67-.26s-.54.1-.71.29-.27.45-.27.76v2.38h-.66v-3.89h.61l.03.43c.11-.17.27-.3.47-.4s.43-.14.68-.14c.29,0,.55.07.78.2s.38.32.48.56c.1-.24.26-.42.49-.55s.49-.2.8-.2c.42,0,.77.13,1.02.4s.39.63.39,1.09Z"/>
      <path class="cls-11" d="m125.36,210.08h-3.14c.03.38.16.67.39.88.23.21.52.31.87.31.27,0,.51-.06.71-.19.2-.13.36-.31.47-.54l.55.23c-.16.34-.39.61-.69.79-.31.19-.66.28-1.05.28-.56,0-1.01-.19-1.36-.56s-.52-.87-.52-1.47.17-1.1.52-1.49.81-.58,1.38-.58,1.02.19,1.36.56c.35.37.52.87.52,1.49v.3Zm-3.14-.49h2.46c-.02-.41-.13-.73-.35-.96-.22-.23-.5-.34-.86-.34s-.65.11-.87.34-.35.55-.38.96Z"/>
      <path class="cls-11" d="m131,211.74c-.02-.08-.04-.27-.07-.57-.12.2-.29.36-.53.48s-.5.18-.8.18c-.43,0-.77-.11-1.03-.34s-.39-.52-.39-.89.13-.67.39-.89.6-.34,1.03-.34h1.31v-.16c0-.32-.09-.55-.26-.7s-.41-.23-.73-.23c-.54,0-.91.21-1.11.64l-.5-.29c.31-.6.85-.9,1.64-.9.5,0,.89.12,1.17.37s.42.63.42,1.14v1.7c0,.35.03.61.07.79h-.64Zm-.07-1.86h-1.17c-.29,0-.51.06-.67.19s-.24.31-.24.54.08.4.23.53.37.19.64.19c.37,0,.65-.12.87-.35s.32-.56.32-.97v-.11Z"/>
      <path class="cls-11" d="m135.52,211.74c-.04-.2-.06-.38-.07-.54-.11.2-.28.36-.5.47s-.47.17-.76.17c-.43,0-.79-.13-1.1-.39-.3-.27-.46-.68-.46-1.25v-2.35h.66v2.25c0,.39.09.68.28.87s.43.28.73.28c.33,0,.6-.11.81-.33s.31-.51.31-.87v-2.21h.66v3.18c0,.24.03.48.07.71h-.66Z"/>
      <path class="cls-11" d="m139.09,211.74c-.19.05-.38.08-.58.08-.33,0-.59-.1-.77-.29s-.27-.47-.27-.83v-2.3h-.61v-.56h.61v-1.23h.66v1.23h.93v.56h-.93v2.22c0,.2.04.36.13.46s.22.15.38.15c.12,0,.24-.02.38-.07l.08.57Z"/>
      <path class="cls-11" d="m141.71,207.74c.58,0,1.05.19,1.42.58s.55.88.55,1.46-.18,1.07-.55,1.46-.84.59-1.42.59-1.05-.2-1.42-.59-.55-.88-.55-1.46.19-1.07.55-1.46.84-.58,1.42-.58Zm0,3.5c.4,0,.71-.14.95-.41.24-.28.36-.63.36-1.05s-.12-.76-.36-1.04c-.23-.28-.55-.41-.95-.41s-.71.14-.95.41c-.24.28-.36.62-.36,1.04s.12.77.36,1.05c.24.27.55.41.95.41Z"/>
      <path class="cls-11" d="m150.32,209.22v2.51h-.63v-2.41c0-.32-.08-.57-.24-.74s-.38-.27-.67-.27-.54.1-.71.29-.27.45-.27.76v2.37h-.65v-2.43c0-.32-.08-.56-.24-.74s-.39-.26-.67-.26-.54.1-.71.29-.27.45-.27.76v2.38h-.66v-3.89h.61l.03.43c.11-.17.27-.3.47-.4s.43-.14.68-.14c.29,0,.55.07.78.2s.38.32.48.56c.1-.24.26-.42.49-.55s.49-.2.8-.2c.42,0,.77.13,1.02.4s.39.63.39,1.09Z"/>
      <path class="cls-11" d="m153.98,211.74c-.02-.08-.04-.27-.07-.57-.12.2-.29.36-.53.48s-.5.18-.8.18c-.43,0-.77-.11-1.03-.34s-.39-.52-.39-.89.13-.67.39-.89.6-.34,1.03-.34h1.31v-.16c0-.32-.09-.55-.26-.7s-.41-.23-.73-.23c-.54,0-.91.21-1.11.64l-.5-.29c.31-.6.85-.9,1.64-.9.5,0,.89.12,1.17.37s.42.63.42,1.14v1.7c0,.35.03.61.07.79h-.64Zm-.07-1.86h-1.17c-.29,0-.51.06-.67.19s-.24.31-.24.54.08.4.23.53.37.19.64.19c.37,0,.65-.12.87-.35s.32-.56.32-.97v-.11Z"/>
      <path class="cls-11" d="m157.36,211.74c-.19.05-.38.08-.58.08-.33,0-.59-.1-.77-.29s-.27-.47-.27-.83v-2.3h-.61v-.56h.61v-1.23h.66v1.23h.93v.56h-.93v2.22c0,.2.04.36.13.46s.22.15.38.15c.12,0,.24-.02.38-.07l.08.57Z"/>
      <path class="cls-11" d="m158.3,206.79c-.09-.09-.14-.21-.14-.35s.05-.26.14-.35.21-.14.35-.14.26.05.35.14.14.21.14.35-.05.26-.14.35-.21.14-.35.14-.26-.05-.35-.14Zm.69,1.05v3.89h-.66v-3.89h.66Z"/>
      <path class="cls-11" d="m161.88,207.74c.58,0,1.05.19,1.42.58s.55.88.55,1.46-.18,1.07-.55,1.46-.84.59-1.42.59-1.05-.2-1.42-.59-.55-.88-.55-1.46.19-1.07.55-1.46.84-.58,1.42-.58Zm0,3.5c.4,0,.71-.14.95-.41.24-.28.36-.63.36-1.05s-.12-.76-.36-1.04c-.23-.28-.55-.41-.95-.41s-.71.14-.95.41c-.24.28-.36.62-.36,1.04s.12.77.36,1.05c.24.27.55.41.95.41Z"/>
      <path class="cls-11" d="m168.2,209.35v2.38h-.66v-2.29c0-.41-.1-.69-.29-.86-.2-.17-.44-.25-.71-.25-.34,0-.61.11-.82.32s-.31.51-.31.88v2.19h-.65v-3.89h.61l.02.52c.12-.19.29-.34.52-.46s.48-.17.77-.17c.47,0,.85.14,1.12.41s.41.68.41,1.2Z"/>
      <path class="cls-11" d="m59.02,221.34c-.19.05-.38.08-.58.08-.33,0-.59-.1-.77-.29s-.27-.47-.27-.83v-2.3h-.61v-.56h.61v-1.23h.66v1.23h.93v.56h-.93v2.22c0,.2.04.36.13.46s.22.15.38.15c.12,0,.24-.02.38-.07l.08.57Z"/>
      <path class="cls-11" d="m63.49,219v2.34h-.66v-2.2c0-.8-.36-1.2-1.07-1.2-.32,0-.6.11-.82.34s-.34.53-.34.91v2.14h-.65v-5.86h.66v2.5c.12-.2.3-.35.53-.47s.47-.17.75-.17c.5,0,.89.14,1.17.42s.43.69.43,1.25Z"/>
      <path class="cls-11" d="m67.13,221.34c-.02-.08-.04-.27-.07-.57-.11.2-.29.36-.53.48s-.5.18-.8.18c-.43,0-.77-.11-1.03-.34s-.39-.52-.39-.89.13-.67.39-.89.6-.34,1.03-.34h1.31v-.16c0-.32-.09-.55-.26-.7s-.41-.23-.73-.23c-.54,0-.91.21-1.11.64l-.5-.29c.31-.6.85-.9,1.64-.9.5,0,.89.12,1.17.37s.42.63.42,1.14v1.7c0,.35.02.61.07.79h-.64Zm-.07-1.86h-1.17c-.29,0-.51.06-.67.19s-.24.31-.24.54.08.4.23.53.37.19.64.19c.36,0,.65-.12.87-.35s.32-.56.32-.97v-.11Z"/>
      <path class="cls-11" d="m70.51,221.34c-.19.05-.38.08-.58.08-.33,0-.59-.1-.77-.29s-.27-.47-.27-.83v-2.3h-.61v-.56h.61v-1.23h.66v1.23h.93v.56h-.93v2.22c0,.2.04.36.13.46s.22.15.38.15c.12,0,.24-.02.38-.07l.08.57Z"/>
      <path class="cls-11" d="m75.7,221.43c-.31,0-.59-.07-.85-.2s-.45-.31-.58-.55v2.37h-.62v-5.61h.57l.04.66c.12-.24.31-.43.56-.56s.54-.2.87-.2c.56,0,1.01.19,1.35.56s.51.87.51,1.48-.17,1.11-.51,1.48-.79.57-1.34.57Zm1.18-2.05c0-.44-.12-.79-.35-1.05s-.54-.4-.93-.4-.71.13-.94.4-.35.62-.35,1.05.12.79.35,1.05.54.4.94.4.69-.13.93-.4.35-.62.35-1.05Z"/>
      <path class="cls-11" d="m81.31,221.34c-.04-.2-.06-.38-.07-.54-.11.2-.28.36-.5.47-.22.11-.47.17-.76.17-.43,0-.79-.13-1.1-.39-.3-.27-.46-.68-.46-1.25v-2.35h.66v2.25c0,.39.09.68.28.87.19.19.43.28.73.28.33,0,.6-.11.81-.33.21-.22.31-.51.31-.87v-2.21h.66v3.18c0,.24.03.48.07.71h-.66Z"/>
      <path class="cls-11" d="m84.89,221.34c-.19.05-.38.08-.58.08-.33,0-.59-.1-.77-.29-.18-.19-.27-.47-.27-.83v-2.3h-.61v-.56h.61v-1.23h.66v1.23h.93v.56h-.93v2.22c0,.2.04.36.13.46s.22.15.38.15c.12,0,.24-.02.38-.07l.08.57Z"/>
      <path class="cls-11" d="m86.95,220.89c.25,0,.44-.05.59-.15.15-.1.22-.25.22-.46,0-.28-.18-.46-.55-.56l-.59-.16c-.7-.18-1.04-.55-1.04-1.09,0-.33.12-.6.38-.82s.58-.32.99-.32c.37,0,.69.09.94.26.26.17.41.41.45.71l-.58.14c-.02-.17-.1-.3-.25-.4-.15-.1-.33-.15-.54-.15s-.4.05-.54.16c-.13.11-.2.25-.2.43,0,.14.05.26.14.35.1.09.24.16.44.22l.58.16c.33.08.59.22.76.4.17.18.26.41.26.68,0,.35-.13.63-.39.84s-.62.31-1.07.31c-.41,0-.75-.09-1.01-.28-.26-.18-.41-.43-.46-.74l.59-.11c.03.18.12.32.27.42.15.11.35.16.59.16Z"/>
      <path class="cls-11" d="m91.53,215.47h.66v5.86h-.66v-5.86Z"/>
      <path class="cls-11" d="m95.05,217.34c.58,0,1.06.19,1.42.58.37.39.55.88.55,1.46s-.18,1.07-.55,1.46c-.37.39-.84.59-1.42.59s-1.05-.2-1.42-.59c-.37-.39-.55-.88-.55-1.46s.19-1.07.55-1.46c.37-.39.84-.58,1.42-.58Zm0,3.5c.4,0,.71-.14.95-.41.24-.28.36-.63.36-1.05s-.12-.76-.36-1.04c-.23-.28-.55-.41-.95-.41s-.71.14-.95.41c-.24.28-.36.62-.36,1.04s.12.77.36,1.05c.24.27.55.41.95.41Z"/>
      <path class="cls-11" d="m99.62,217.34c.42,0,.79.1,1.1.31s.53.48.67.84l-.58.23c-.08-.24-.23-.43-.45-.57-.21-.14-.46-.21-.74-.21-.39,0-.7.13-.94.4-.24.27-.35.62-.35,1.06s.12.79.36,1.05c.24.27.55.4.93.4.27,0,.51-.07.73-.21.21-.14.37-.33.46-.57l.57.23c-.15.36-.38.65-.69.85-.31.2-.67.3-1.08.3-.59,0-1.06-.19-1.41-.56s-.53-.87-.53-1.48.18-1.11.54-1.49c.36-.38.83-.57,1.42-.57Z"/>
      <path class="cls-11" d="m104.82,221.34c-.02-.08-.04-.27-.07-.57-.11.2-.29.36-.53.48-.24.12-.5.18-.8.18-.43,0-.77-.11-1.03-.34s-.39-.52-.39-.89.13-.67.39-.89c.26-.22.6-.34,1.03-.34h1.31v-.16c0-.32-.09-.55-.26-.7s-.41-.23-.73-.23c-.54,0-.91.21-1.11.64l-.5-.29c.31-.6.85-.9,1.64-.9.5,0,.89.12,1.17.37s.42.63.42,1.14v1.7c0,.35.03.61.07.79h-.64Zm-.07-1.86h-1.17c-.29,0-.51.06-.67.19-.16.13-.24.31-.24.54s.08.4.23.53.37.19.64.19c.37,0,.65-.12.87-.35s.32-.56.32-.97v-.11Z"/>
      <path class="cls-11" d="m106.49,215.47h.66v5.86h-.66v-5.86Z"/>
      <path class="cls-11" d="m112.19,217.34c.42,0,.79.1,1.1.31s.53.48.67.84l-.58.23c-.08-.24-.23-.43-.45-.57-.21-.14-.46-.21-.74-.21-.39,0-.7.13-.94.4-.24.27-.35.62-.35,1.06s.12.79.36,1.05c.24.27.55.4.93.4.27,0,.51-.07.73-.21.21-.14.37-.33.46-.57l.57.23c-.15.36-.38.65-.69.85-.31.2-.67.3-1.08.3-.59,0-1.06-.19-1.41-.56s-.53-.87-.53-1.48.18-1.11.54-1.49c.36-.38.83-.57,1.42-.57Z"/>
      <path class="cls-11" d="m116.57,217.34c.58,0,1.06.19,1.42.58.37.39.55.88.55,1.46s-.18,1.07-.55,1.46c-.37.39-.84.59-1.42.59s-1.05-.2-1.42-.59c-.37-.39-.55-.88-.55-1.46s.19-1.07.55-1.46c.37-.39.84-.58,1.42-.58Zm0,3.5c.4,0,.71-.14.95-.41.24-.28.36-.63.36-1.05s-.12-.76-.36-1.04c-.23-.28-.55-.41-.95-.41s-.71.14-.95.41c-.24.28-.36.62-.36,1.04s.12.77.36,1.05c.24.27.55.41.95.41Z"/>
      <path class="cls-11" d="m122.89,218.95v2.38h-.66v-2.29c0-.41-.1-.69-.29-.86-.2-.17-.44-.25-.71-.25-.34,0-.61.11-.82.32-.21.22-.31.51-.31.88v2.19h-.65v-3.89h.61l.02.52c.12-.19.29-.34.52-.46.23-.11.48-.17.77-.17.47,0,.85.14,1.12.41.28.28.41.68.41,1.2Z"/>
      <path class="cls-11" d="m125.73,221.34c-.19.05-.38.08-.58.08-.33,0-.59-.1-.77-.29-.18-.19-.27-.47-.27-.83v-2.3h-.61v-.56h.61v-1.23h.66v1.23h.93v.56h-.93v2.22c0,.2.04.36.13.46s.22.15.38.15c.12,0,.24-.02.38-.07l.08.57Z"/>
      <path class="cls-11" d="m128.36,217.39c.13,0,.27.02.41.05v.61c-.14-.03-.28-.05-.41-.05-.33,0-.59.1-.78.31s-.28.5-.28.86v2.16h-.66v-3.89h.62l.03.49c.08-.17.22-.31.42-.4s.42-.14.67-.14Z"/>
      <path class="cls-11" d="m131.18,217.34c.58,0,1.05.19,1.42.58s.55.88.55,1.46-.18,1.07-.55,1.46-.84.59-1.42.59-1.05-.2-1.42-.59-.55-.88-.55-1.46.19-1.07.55-1.46.84-.58,1.42-.58Zm0,3.5c.4,0,.71-.14.95-.41.24-.28.36-.63.36-1.05s-.12-.76-.36-1.04c-.23-.28-.55-.41-.95-.41s-.71.14-.95.41c-.24.28-.36.62-.36,1.04s.12.77.36,1.05c.24.27.55.41.95.41Z"/>
      <path class="cls-11" d="m134.06,215.47h.66v5.86h-.66v-5.86Z"/>
      <path class="cls-11" d="m140.61,221.34c-.02-.08-.04-.27-.07-.57-.12.2-.29.36-.53.48s-.5.18-.8.18c-.43,0-.77-.11-1.03-.34s-.39-.52-.39-.89.13-.67.39-.89.6-.34,1.03-.34h1.31v-.16c0-.32-.09-.55-.26-.7s-.41-.23-.73-.23c-.54,0-.91.21-1.11.64l-.5-.29c.31-.6.85-.9,1.64-.9.5,0,.89.12,1.17.37s.42.63.42,1.14v1.7c0,.35.03.61.07.79h-.64Zm-.07-1.86h-1.17c-.29,0-.51.06-.67.19s-.24.31-.24.54.08.4.23.53.37.19.64.19c.37,0,.65-.12.87-.35s.32-.56.32-.97v-.11Z"/>
      <path class="cls-11" d="m145.73,218.95v2.38h-.66v-2.29c0-.41-.1-.69-.29-.86-.2-.17-.44-.25-.71-.25-.34,0-.61.11-.82.32s-.31.51-.31.88v2.19h-.65v-3.89h.61l.02.52c.12-.19.29-.34.52-.46s.48-.17.77-.17c.47,0,.85.14,1.12.41s.41.68.41,1.2Z"/>
      <path class="cls-11" d="m149.92,221.34c-.03-.2-.05-.42-.06-.66-.13.24-.32.43-.57.56s-.53.2-.85.2c-.56,0-1.01-.19-1.35-.56s-.51-.87-.51-1.48.17-1.1.52-1.48.79-.57,1.36-.57c.3,0,.58.06.83.19s.44.3.58.54v-2.59h.64v4.95c0,.44.03.75.07.91h-.66Zm-.11-1.95c0-.43-.12-.79-.35-1.05s-.54-.4-.94-.4-.7.13-.93.4-.35.62-.35,1.05.12.79.35,1.06.54.4.94.4.71-.13.94-.4.35-.62.35-1.06Z"/>
      <path class="cls-11" d="m59.3,231.03c-.31,0-.59-.07-.85-.2s-.45-.31-.58-.55v2.37h-.62v-5.61h.57l.04.66c.12-.24.31-.43.56-.56s.54-.2.87-.2c.56,0,1.01.19,1.35.56s.51.87.51,1.48-.17,1.11-.51,1.48-.79.57-1.34.57Zm1.18-2.05c0-.44-.12-.79-.35-1.05s-.54-.4-.93-.4-.71.13-.94.4-.35.62-.35,1.05.12.79.35,1.05.54.4.94.4.69-.13.93-.4.35-.62.35-1.05Z"/>
      <path class="cls-11" d="m63.75,226.99c.13,0,.27.02.41.05v.61c-.14-.03-.28-.05-.41-.05-.33,0-.59.1-.78.31s-.28.5-.28.86v2.16h-.66v-3.89h.62l.03.49c.08-.17.22-.31.42-.4s.42-.14.67-.14Z"/>
      <path class="cls-11" d="m64.97,225.99c-.09-.09-.14-.21-.14-.35s.05-.26.14-.35.21-.14.35-.14.26.05.35.14.14.21.14.35-.05.26-.14.35-.21.14-.35.14-.26-.05-.35-.14Zm.69,1.05v3.89h-.66v-3.89h.66Z"/>
      <path class="cls-11" d="m70.22,227.04l-1.62,3.89h-.66l-1.58-3.89h.7l1.21,3.12,1.26-3.12h.68Z"/>
      <path class="cls-11" d="m73.28,230.94c-.02-.08-.04-.27-.07-.57-.11.2-.29.36-.53.48s-.5.18-.8.18c-.43,0-.77-.11-1.03-.34s-.39-.52-.39-.89.13-.67.39-.89.6-.34,1.03-.34h1.31v-.16c0-.32-.09-.55-.26-.7s-.41-.23-.73-.23c-.54,0-.91.21-1.11.64l-.5-.29c.31-.6.85-.9,1.64-.9.5,0,.89.12,1.17.37s.42.63.42,1.14v1.7c0,.35.02.61.07.79h-.64Zm-.07-1.86h-1.17c-.29,0-.51.06-.67.19s-.24.31-.24.54.08.4.23.53.37.19.64.19c.36,0,.65-.12.87-.35s.32-.56.32-.97v-.11Z"/>
      <path class="cls-11" d="m76.63,226.94c.42,0,.79.1,1.1.31.31.2.53.48.67.84l-.58.23c-.08-.24-.23-.43-.44-.57s-.46-.21-.74-.21c-.39,0-.7.13-.94.4s-.35.62-.35,1.06.12.79.36,1.05.55.4.93.4c.27,0,.51-.07.73-.21s.37-.33.46-.57l.57.23c-.15.36-.38.65-.69.85s-.67.3-1.08.3c-.59,0-1.06-.19-1.41-.56s-.53-.87-.53-1.48.18-1.11.54-1.49.83-.57,1.42-.57Z"/>
      <path class="cls-11" d="m82.67,227.04l-1.79,4.78c-.23.61-.63.92-1.18.92-.28,0-.54-.07-.78-.2l.18-.6c.18.13.37.2.56.2.29,0,.51-.17.64-.52l.16-.45-1.66-4.13h.7l1.27,3.29,1.2-3.29h.68Z"/>
      <path class="cls-11" d="m87.02,225.67c-.22,0-.39.06-.49.17s-.15.29-.15.52v.68h.92v.54h-.92v3.35h-.66v-3.35h-.58v-.54h.58v-.68c0-.42.11-.75.32-.96.22-.22.51-.33.89-.33.12,0,.25.02.4.05v.59c-.1-.02-.21-.04-.31-.04Z"/>
      <path class="cls-11" d="m88.13,225.99c-.09-.09-.14-.21-.14-.35s.05-.26.14-.35c.09-.09.21-.14.35-.14s.26.05.35.14c.1.09.14.21.14.35s-.05.26-.14.35c-.09.09-.21.14-.35.14s-.26-.05-.35-.14Zm.69,1.05v3.89h-.66v-3.89h.66Z"/>
      <path class="cls-11" d="m91.7,226.99c.13,0,.27.02.41.05v.61c-.14-.03-.28-.05-.41-.05-.33,0-.59.1-.78.31-.19.21-.28.5-.28.86v2.16h-.66v-3.89h.62l.03.49c.08-.17.22-.31.42-.4.19-.1.42-.14.67-.14Z"/>
      <path class="cls-11" d="m93.98,230.49c.25,0,.44-.05.59-.15.15-.1.22-.25.22-.46,0-.28-.18-.46-.55-.56l-.59-.16c-.7-.18-1.04-.55-1.04-1.09,0-.33.12-.6.38-.82s.58-.32.99-.32c.37,0,.69.09.94.26.26.17.41.41.45.71l-.58.14c-.02-.17-.1-.3-.25-.4-.15-.1-.33-.15-.54-.15s-.4.05-.54.16c-.13.11-.2.25-.2.43,0,.14.05.26.14.35.1.09.24.16.44.22l.58.16c.33.08.59.22.76.4.17.18.26.41.26.68,0,.35-.13.63-.39.84s-.62.31-1.07.31c-.41,0-.75-.09-1.01-.28-.26-.18-.41-.43-.46-.74l.59-.11c.03.18.12.32.27.42.15.11.35.16.59.16Z"/>
      <path class="cls-11" d="m98.07,230.94c-.19.05-.38.08-.58.08-.33,0-.59-.1-.77-.29-.18-.19-.27-.47-.27-.83v-2.3h-.61v-.56h.61v-1.23h.66v1.23h.93v.56h-.93v2.22c0,.2.04.36.13.46s.22.15.38.15c.12,0,.24-.02.38-.07l.08.57Z"/>
      <path class="cls-11" d="m99.11,230.89c-.11-.1-.16-.23-.16-.38s.05-.27.16-.38c.11-.11.23-.16.38-.16s.27.05.38.16c.11.11.16.23.16.38s-.05.27-.16.37c-.11.11-.23.16-.38.16s-.28-.05-.38-.16Z"/>
    </g>
    <text class="cls-10" transform="translate(56.65 244.42)"><tspan x="0" y="0">h</tspan><tspan class="cls-12" x="4.71" y="0">t</tspan><tspan x="7.8" y="0">tps://</tspan><tspan class="cls-3" x="28.55" y="0">h</tspan><tspan x="33.24" y="0">om</tspan><tspan class="cls-6" x="44.91" y="0">e</tspan><tspan x="49.63" y="0">-a</tspan><tspan class="cls-8" x="58.16" y="0">s</tspan><tspan class="cls-3" x="61.82" y="0">s</tspan><tspan x="65.5" y="0">i</tspan><tspan class="cls-2" x="67.52" y="0">s</tspan><tspan class="cls-8" x="71.18" y="0">t</tspan><tspan x="74.12" y="0">a</tspan><tspan class="cls-2" x="78.36" y="0">n</tspan><tspan x="82.98" y="0">t.io</tspan></text>
  </g>
  <g id="Cut_Lines" data-name="Cut Lines">
    <path class="cls-14" d="m51.38,272.7c-12.7,0-23.03-10.33-23.03-23.03V118.56c0-8.67,4.28-19.01,10.41-25.14l58.34-58.34c4.34-4.34,10.13-6.74,16.29-6.74s11.94,2.39,16.29,6.74l58.34,58.34c6.13,6.13,10.42,16.47,10.42,25.14v131.1c0,12.7-10.33,23.03-23.03,23.03H51.38Z"/>
  </g>
</svg>