<?xml version="1.0" encoding="UTF-8"?>
<svg xmlns="http://www.w3.org/2000/svg" xmlns:xlink="http://www.w3.org/1999/xlink" viewBox="0 0 226.77 311.81">
  <defs>
    <style>
      .cls-1 {
        clip-path: url(#clippath);
      }

      .cls-2, .cls-3, .cls-4, .cls-5 {
        stroke-width: 0px;
      }

      .cls-2, .cls-6 {
        fill: none;
      }

      .cls-3 {
        fill: #f2f5f9;
      }

      .cls-4 {
        fill: #2cbbed;
      }

      .cls-5 {
        fill: #1c2126;
      }

      .cls-6 {
        stroke: #ed1c24;
        stroke-miterlimit: 10;
        stroke-width: .5px;
      }
    </style>
    <clipPath id="clippath">
      <polygon class="cls-2" points="184.25 180.57 42.52 180.57 42.52 109.71 113.39 38.84 184.25 109.71 184.25 180.57"/>
    </clipPath>
  </defs>
  <g id="Background">
    <g>
      <g>
        <path class="cls-5" d="m45.31,193.62h4.22v10.38l10.95.03v-10.41h4.25v24.83h-4.25v-10.68l-10.95-.03v10.71h-4.22v-24.83Z"/>
        <path class="cls-5" d="m77.07,201.21c2.57,0,4.66.82,6.28,2.47,1.62,1.65,2.42,3.77,2.42,6.36s-.81,4.69-2.42,6.34c-1.62,1.65-3.71,2.47-6.28,2.47s-4.7-.82-6.31-2.47c-1.62-1.65-2.42-3.76-2.42-6.34s.81-4.73,2.42-6.37c1.62-1.64,3.72-2.47,6.31-2.47Zm0,14.03c1.37,0,2.49-.48,3.35-1.45.86-.97,1.29-2.23,1.29-3.78s-.43-2.8-1.29-3.76c-.86-.96-1.97-1.44-3.35-1.44s-2.54.48-3.41,1.44c-.86.96-1.3,2.21-1.3,3.76s.43,2.81,1.3,3.78,2,1.45,3.41,1.45Z"/>
        <path class="cls-5" d="m114.47,207.77v10.68h-3.9v-10.07c0-1.16-.3-2.07-.9-2.72s-1.41-.98-2.44-.98c-1.1,0-1.97.36-2.62,1.07-.65.71-.98,1.71-.98,3v9.7h-3.95v-10.07c0-1.16-.29-2.07-.87-2.72-.58-.65-1.39-.98-2.42-.98-1.1,0-1.98.36-2.64,1.07-.66.71-1,1.71-1,3v9.7h-4.02v-16.78h3.74l.13,1.61c.97-1.43,2.56-2.14,4.77-2.14,1.28,0,2.4.27,3.34.8.94.53,1.66,1.31,2.14,2.33.41-.97,1.09-1.74,2.03-2.29.95-.55,2.07-.83,3.38-.83,1.9,0,3.42.59,4.53,1.76,1.12,1.17,1.68,2.8,1.68,4.87Z"/>
        <path class="cls-5" d="m133.96,211.54h-12.86c.13,1.26.61,2.23,1.43,2.89.82.66,1.86,1,3.12,1,2.05,0,3.48-.85,4.3-2.56l3.35,1.33c-.63,1.47-1.62,2.62-2.98,3.45s-2.92,1.25-4.67,1.25c-2.48,0-4.49-.81-6.04-2.43-1.54-1.62-2.32-3.75-2.32-6.39s.78-4.78,2.33-6.43,3.59-2.47,6.1-2.47,4.46.81,5.96,2.44,2.26,3.77,2.26,6.43v1.49Zm-12.79-2.82h8.7c-.08-1.36-.49-2.4-1.24-3.11-.75-.71-1.75-1.07-3.01-1.07s-2.27.36-3.06,1.09-1.25,1.76-1.4,3.1Z"/>
        <path class="cls-5" d="m58.75,246.69h-9.45l-2.04,5.78h-4.35l8.97-24.83h4.35l8.99,24.83h-4.45l-2.01-5.78Zm-1.23-3.57l-3.47-9.93-3.5,9.93h6.98Z"/>
        <path class="cls-5" d="m73.09,249.68c.83,0,1.49-.16,1.97-.49s.72-.81.72-1.45c0-.9-.6-1.5-1.81-1.79l-2.31-.61c-3.18-.86-4.77-2.5-4.77-4.9,0-1.54.56-2.8,1.68-3.77,1.12-.97,2.62-1.46,4.52-1.46,1.69,0,3.11.39,4.26,1.16,1.15.77,1.85,1.84,2.1,3.19l-3.6.85c-.08-.61-.36-1.09-.84-1.45-.48-.35-1.08-.53-1.79-.53s-1.3.18-1.74.54c-.44.36-.66.83-.66,1.4,0,.46.17.85.5,1.16s.85.56,1.54.75l2.28.56c1.52.41,2.67,1.03,3.47,1.86.8.83,1.2,1.85,1.2,3.07,0,1.57-.59,2.82-1.78,3.75s-2.82,1.4-4.9,1.4c-1.93,0-3.47-.42-4.63-1.27-1.16-.85-1.85-1.99-2.06-3.43l3.67-.65c.07.66.36,1.18.89,1.55.53.37,1.23.56,2.1.56Z"/>
        <path class="cls-5" d="m88.33,249.68c.83,0,1.49-.16,1.97-.49s.72-.81.72-1.45c0-.9-.6-1.5-1.81-1.79l-2.31-.61c-3.18-.86-4.77-2.5-4.77-4.9,0-1.54.56-2.8,1.68-3.77,1.12-.97,2.62-1.46,4.52-1.46,1.69,0,3.11.39,4.26,1.16,1.15.77,1.85,1.84,2.1,3.19l-3.6.85c-.08-.61-.36-1.09-.84-1.45-.48-.35-1.08-.53-1.79-.53s-1.3.18-1.74.54c-.44.36-.66.83-.66,1.4,0,.46.17.85.5,1.16s.85.56,1.54.75l2.28.56c1.52.41,2.67,1.03,3.47,1.86.8.83,1.2,1.85,1.2,3.07,0,1.57-.59,2.82-1.78,3.75s-2.82,1.4-4.9,1.4c-1.93,0-3.47-.42-4.63-1.27-1.16-.85-1.85-1.99-2.06-3.43l3.67-.65c.07.66.36,1.18.89,1.55.53.37,1.23.56,2.1.56Z"/>
        <path class="cls-5" d="m97.59,229.88c0-.72.25-1.32.74-1.81.49-.49,1.09-.73,1.8-.73s1.29.25,1.79.75c.49.5.74,1.1.74,1.79s-.25,1.3-.74,1.8c-.49.5-1.09.76-1.79.76s-1.3-.25-1.79-.76c-.5-.5-.75-1.1-.75-1.8Zm4.55,5.81v16.78h-4.02v-16.78h4.02Z"/>
        <path class="cls-5" d="m111.86,249.68c.83,0,1.49-.16,1.97-.49s.72-.81.72-1.45c0-.9-.6-1.5-1.81-1.79l-2.31-.61c-3.18-.86-4.77-2.5-4.77-4.9,0-1.54.56-2.8,1.68-3.77,1.12-.97,2.62-1.46,4.52-1.46,1.69,0,3.11.39,4.26,1.16,1.15.77,1.85,1.84,2.1,3.19l-3.6.85c-.08-.61-.36-1.09-.84-1.45-.48-.35-1.08-.53-1.79-.53s-1.3.18-1.74.54c-.44.36-.66.83-.66,1.4,0,.46.17.85.5,1.16s.85.56,1.54.75l2.28.56c1.52.41,2.67,1.03,3.47,1.86.8.83,1.2,1.85,1.2,3.07,0,1.57-.59,2.82-1.78,3.75s-2.82,1.4-4.9,1.4c-1.93,0-3.47-.42-4.63-1.27-1.16-.85-1.85-1.99-2.06-3.43l3.67-.65c.07.66.36,1.18.89,1.55.53.37,1.23.56,2.1.56Z"/>
        <path class="cls-5" d="m130.57,252.47c-1.15.25-2.13.38-2.92.38-1.69,0-3.01-.46-3.96-1.4-.95-.93-1.42-2.31-1.42-4.15v-8.21h-2.57v-3.4h2.57v-5.23h3.99v5.23h3.87v3.4h-3.87v7.49c0,1.82.7,2.72,2.11,2.72.45,0,1.02-.12,1.69-.35l.51,3.5Z"/>
        <path class="cls-5" d="m144.04,252.47c-.13-.54-.23-1.18-.28-1.91-.49.72-1.18,1.29-2.07,1.72-.89.43-1.92.64-3.1.64-1.84,0-3.31-.49-4.42-1.47s-1.66-2.31-1.66-3.98.54-2.92,1.64-3.84c1.09-.92,2.58-1.39,4.48-1.39h5.03v-.65c0-1.05-.31-1.84-.92-2.36-.61-.52-1.48-.78-2.58-.78-1.96,0-3.37.82-4.22,2.46l-2.92-1.71c1.42-2.67,3.87-4,7.36-4,2.12,0,3.85.54,5.2,1.63,1.36,1.1,2.04,2.86,2.04,5.3v6.68c0,1.89.1,3.12.3,3.67h-3.87Zm-.35-7.46h-4.14c-.94,0-1.67.22-2.19.65-.52.43-.78,1.02-.78,1.78s.27,1.38.8,1.79,1.29.61,2.28.61c1.18,0,2.15-.37,2.91-1.12.75-.75,1.13-1.86,1.13-3.33v-.38Z"/>
        <path class="cls-5" d="m166.92,242.12v10.35h-4v-9.48c0-1.59-.38-2.69-1.13-3.27-.72-.59-1.56-.88-2.52-.88-1.16,0-2.13.37-2.91,1.11-.77.74-1.16,1.8-1.16,3.17v9.35h-4.02v-16.78h3.77l.13,1.81c.48-.71,1.17-1.27,2.08-1.69.91-.42,1.9-.62,2.97-.62,2.17,0,3.85.6,5.02,1.8,1.18,1.2,1.77,2.91,1.77,5.12Z"/>
        <path class="cls-5" d="m179.75,252.47c-1.15.25-2.13.38-2.92.38-1.69,0-3.01-.46-3.96-1.4-.95-.93-1.42-2.31-1.42-4.15v-8.21h-2.57v-3.4h2.57v-5.23h3.99v5.23h3.87v3.4h-3.87v7.49c0,1.82.7,2.72,2.11,2.72.45,0,1.02-.12,1.69-.35l.51,3.5Z"/>
      </g>
      <g class="cls-1">
        <g>
          <path class="cls-4" d="m184.25,171.71c0,4.87-3.99,8.86-8.86,8.86H51.38c-4.87,0-8.86-3.99-8.86-8.86v-53.15c0-4.87,2.82-11.68,6.26-15.12l58.34-58.34c3.45-3.45,9.08-3.45,12.53,0l58.34,58.34c3.45,3.45,6.26,10.25,6.26,15.12v53.15Z"/>
          <path class="cls-2" d="m75.59,154.59c-3.9,0-7.09-3.19-7.09-7.09v-19.95c0-3.9,2.25-9.34,5.01-12.1l34.86-34.86c2.76-2.76,7.27-2.76,10.02,0l34.86,34.86c2.76,2.76,5.01,8.2,5.01,12.1v19.95c0,3.9-3.19,7.09-7.09,7.09h-75.59Z"/>
          <g>
            <circle class="cls-3" cx="113.39" cy="88.45" r="9.45"/>
            <path class="cls-3" d="m113.39,100.55c-6.68,0-12.11-5.43-12.11-12.11s5.43-12.11,12.11-12.11,12.11,5.43,12.11,12.11-5.43,12.11-12.11,12.11Zm0-18.9c-3.75,0-6.79,3.05-6.79,6.79s3.05,6.79,6.79,6.79,6.79-3.05,6.79-6.79-3.05-6.79-6.79-6.79Z"/>
          </g>
          <g>
            <circle class="cls-3" cx="148.82" cy="125.06" r="9.45"/>
            <path class="cls-3" d="m148.82,137.17c-6.67,0-12.11-5.43-12.11-12.11s5.43-12.11,12.11-12.11,12.11,5.43,12.11,12.11-5.43,12.11-12.11,12.11Zm0-18.9c-3.74,0-6.79,3.05-6.79,6.79s3.05,6.79,6.79,6.79,6.79-3.05,6.79-6.79-3.05-6.79-6.79-6.79Z"/>
          </g>
          <g>
            <circle class="cls-3" cx="77.95" cy="145.14" r="9.45"/>
            <path class="cls-3" d="m77.95,157.25c-6.68,0-12.11-5.43-12.11-12.11s5.43-12.11,12.11-12.11,12.11,5.43,12.11,12.11-5.43,12.11-12.11,12.11Zm0-18.9c-3.75,0-6.79,3.05-6.79,6.79s3.05,6.79,6.79,6.79,6.79-3.05,6.79-6.79-3.05-6.79-6.79-6.79Z"/>
          </g>
          <polygon class="cls-3" points="118.7 193.4 74.2 148.9 81.71 141.38 108.07 167.74 108.07 88.37 118.7 88.37 118.7 193.4"/>
          <rect class="cls-3" x="106.56" y="136.89" width="49.5" height="10.63" transform="translate(-62.09 134.49) rotate(-45)"/>
        </g>
      </g>
    </g>
  </g>
  <g id="Cut_Lines" data-name="Cut Lines">
    <path class="cls-6" d="m51.38,272.7c-12.7,0-23.03-10.33-23.03-23.03V118.56c0-8.67,4.28-19.01,10.41-25.14l58.34-58.34c4.34-4.34,10.13-6.74,16.29-6.74s11.94,2.39,16.29,6.74l58.34,58.34c6.13,6.13,10.42,16.47,10.42,25.14v131.1c0,12.7-10.33,23.03-23.03,23.03H51.38Z"/>
  </g>
</svg>