<?xml version="1.0" encoding="UTF-8"?>
<svg xmlns="http://www.w3.org/2000/svg" viewBox="0 0 226.77 226.77">
  <defs>
    <style>
      .cls-1 {
        fill: #1c2126;
        font-family: Biotif-Black, Biotif;
        font-size: 15px;
        font-weight: 800;
      }

      .cls-2 {
        fill: #2cbbed;
        stroke: #2cbbed;
        stroke-miterlimit: 10;
      }

      .cls-3 {
        font-family: Biotif-Regular, Biotif;
      }

      .cls-3, .cls-4, .cls-5 {
        fill: #f2f5f9;
      }

      .cls-3, .cls-5 {
        font-size: 18px;
      }

      .cls-4 {
        stroke-width: 0px;
      }

      .cls-5 {
        font-family: Biotif-SemiBold, Biotif;
        font-weight: 600;
      }
    </style>
  </defs>
  <g id="Background">
    <circle class="cls-2" cx="113.39" cy="113.39" r="113.39"/>
  </g>
  <g id="Graphics">
    <text class="cls-1" transform="translate(18.03 111.23) rotate(88.31)"><tspan x="0" y="0">P</tspan></text>
    <text class="cls-1" transform="translate(18.38 121.94) rotate(81.69)"><tspan x="0" y="0">R</tspan></text>
    <text class="cls-1" transform="translate(20.11 132.82) rotate(76.77)"><tspan x="0" y="0">I</tspan></text>
    <text class="cls-1" transform="translate(21.25 138.15) rotate(71.57)"><tspan x="0" y="0">V</tspan></text>
    <text class="cls-1" transform="translate(24.53 148.08) rotate(65.51)"><tspan x="0" y="0">A</tspan></text>
    <text class="cls-1" transform="translate(29.04 158) rotate(58.75)"><tspan x="0" y="0">C</tspan></text>
    <text class="cls-1" transform="translate(35.57 168.58) rotate(51.65)"><tspan x="0" y="0">Y</tspan></text>
    <text class="cls-1" transform="translate(42.51 177.1) rotate(46.96)"><tspan x="0" y="0"> </tspan></text>
    <text class="cls-1" transform="translate(45.53 180.39) rotate(43.33)"><tspan x="0" y="0">•</tspan></text>
    <text class="cls-1" transform="translate(51.09 185.54) rotate(39.68)"><tspan x="0" y="0"> </tspan></text>
    <text class="cls-1" transform="translate(54.6 188.64) rotate(34.57)"><tspan x="0" y="0">C</tspan></text>
    <text class="cls-1" transform="translate(64.93 195.67) rotate(27.06)"><tspan x="0" y="0">H</tspan></text>
    <text class="cls-1" transform="translate(76.02 201.31) rotate(19.13)"><tspan x="0" y="0">O</tspan></text>
    <text class="cls-1" transform="translate(87.91 205.27) rotate(14.12)"><tspan x="0" y="0">I</tspan></text>
    <text class="cls-1" transform="translate(93.14 206.72) rotate(8.8)"><tspan x="0" y="0">C</tspan></text>
    <text class="cls-1" transform="translate(105.43 208.49) rotate(2.02)"><tspan x="0" y="0">E</tspan></text>
    <text class="cls-1" transform="translate(115.07 208.72) rotate(-2.28)"><tspan x="0" y="0"> </tspan></text>
    <text class="cls-1" transform="translate(119.54 208.57) rotate(-5.92)"><tspan x="0" y="0">•</tspan></text>
    <text class="cls-1" transform="translate(127.05 207.73) rotate(-9.54)"><tspan x="0" y="0"> </tspan></text>
    <text class="cls-1" transform="translate(131.57 207.05) rotate(-13.87)"><tspan x="0" y="0">S</tspan></text>
    <text class="cls-1" transform="translate(141.46 204.62) rotate(-20.61)"><tspan x="0" y="0">U</tspan></text>
    <text class="cls-1" transform="translate(153.01 200.15) rotate(-27.34)"><tspan x="0" y="0">S</tspan></text>
    <text class="cls-1" transform="translate(161.95 195.48) rotate(-33.3)"><tspan x="0" y="0">T</tspan></text>
    <text class="cls-1" transform="translate(169.4 190.64) rotate(-39.08)"><tspan x="0" y="0">A</tspan></text>
    <text class="cls-1" transform="translate(178.05 183.42) rotate(-44.09)"><tspan x="0" y="0">I</tspan></text>
    <text class="cls-1" transform="translate(182.06 179.72) rotate(-49.53)"><tspan x="0" y="0">N</tspan></text>
    <text class="cls-1" transform="translate(190.31 169.9) rotate(-56.93)"><tspan x="0" y="0">A</tspan></text>
    <text class="cls-1" transform="translate(196.53 160.22) rotate(-63.71)"><tspan x="0" y="0">B</tspan></text>
    <text class="cls-1" transform="translate(201.14 150.56) rotate(-68.53)"><tspan x="0" y="0">I</tspan></text>
    <text class="cls-1" transform="translate(203.12 145.65) rotate(-72.76)"><tspan x="0" y="0">L</tspan></text>
    <text class="cls-1" transform="translate(205.69 137.1) rotate(-77.02)"><tspan x="0" y="0">I</tspan></text>
    <text class="cls-1" transform="translate(206.94 131.92) rotate(-81.55)"><tspan x="0" y="0">T</tspan></text>
    <text class="cls-1" transform="translate(208.39 122.09) rotate(-87.96)"><tspan x="0" y="0">Y</tspan></text>
    <text class="cls-3" transform="translate(28.75 104.18) rotate(-81.45)"><tspan x="0" y="0">•</tspan></text>
    <text class="cls-3" transform="translate(29.8 97.37) rotate(-77.49)"><tspan x="0" y="0"> </tspan></text>
    <text class="cls-3" transform="translate(30.68 92.67) rotate(-72.08)"><tspan x="0" y="0">P</tspan></text>
    <text class="cls-3" transform="translate(33.91 82.62) rotate(-65.25)"><tspan x="0" y="0">o</tspan></text>
    <text class="cls-3" transform="translate(37.87 73.65) rotate(-57.48)"><tspan x="0" y="0">w</tspan></text>
    <text class="cls-3" transform="translate(45.07 62.51) rotate(-49.89)"><tspan x="0" y="0">e</tspan></text>
    <text class="cls-3" transform="translate(51.47 55.04) rotate(-44.48)"><tspan x="0" y="0">r</tspan></text>
    <text class="cls-3" transform="translate(55.65 50.78) rotate(-39.34)"><tspan x="0" y="0">e</tspan></text>
    <text class="cls-3" transform="translate(63.17 44.56) rotate(-32.49)"><tspan x="0" y="0">d</tspan></text>
    <text class="cls-3" transform="translate(72.32 38.88) rotate(-27.26)"><tspan x="0" y="0"> </tspan></text>
    <text class="cls-3" transform="translate(76.51 36.56) rotate(-22.03)"><tspan x="0" y="0">b</tspan></text>
    <text class="cls-3" transform="translate(86.16 32.67) rotate(-15.55)"><tspan x="0" y="0">y</tspan></text>
    <text class="cls-3" transform="translate(94.87 30.33) rotate(-10.86)"><tspan x="0" y="0"> </tspan></text>
    <text class="cls-5" transform="translate(99.51 29.2) rotate(-4.83)"><tspan x="0" y="0">H</tspan></text>
    <text class="cls-5" transform="translate(112.48 28.18) rotate(2.93)"><tspan x="0" y="0">o</tspan></text>
    <text class="cls-5" transform="translate(122.75 28.48) rotate(11.64)"><tspan x="0" y="0">m</tspan></text>
    <text class="cls-5" transform="translate(137.95 31.8) rotate(20.24)"><tspan x="0" y="0">e</tspan></text>
    <text class="cls-5" transform="translate(147.26 35.35) rotate(25.21)"><tspan x="0" y="0"> </tspan></text>
    <text class="cls-5" transform="translate(151.57 37.16) rotate(30.86)"><tspan x="0" y="0">A</tspan></text>
    <text class="cls-5" transform="translate(161.86 43.43) rotate(37.63)"><tspan x="0" y="0">s</tspan></text>
    <text class="cls-5" transform="translate(168.27 48.35) rotate(43.03)"><tspan x="0" y="0">s</tspan></text>
    <text class="cls-5" transform="translate(174.2 53.97) rotate(47.2)"><tspan x="0" y="0">i</tspan></text>
    <text class="cls-5" transform="translate(177.25 57.15) rotate(51.42)"><tspan x="0" y="0">s</tspan></text>
    <text class="cls-5" transform="translate(182.29 63.51) rotate(56.3)"><tspan x="0" y="0">t</tspan></text>
    <text class="cls-5" transform="translate(185.95 68.84) rotate(61.61)"><tspan x="0" y="0">a</tspan></text>
    <text class="cls-5" transform="translate(190.43 77.05) rotate(68.26)"><tspan x="0" y="0">n</tspan></text>
    <text class="cls-5" transform="translate(194.16 86.6) rotate(73.91)"><tspan x="0" y="0">t</tspan></text>
    <text class="cls-3" transform="translate(195.97 92.95) rotate(77.8)"><tspan x="0" y="0"> </tspan></text>
    <text class="cls-3" transform="translate(197.03 97.67) rotate(81.78)"><tspan x="0" y="0">•</tspan></text>
    <path class="cls-4" d="m155.83,101.06l-38.33-38.33c-2.26-2.26-5.97-2.26-8.23,0l-38.33,38.33c-2.26,2.26-4.12,6.73-4.12,9.94v34.92c0,3.2,2.62,5.82,5.82,5.82h35.8l-15.76-15.76c-.81.28-1.68.44-2.58.44-4.39,0-7.95-3.57-7.95-7.95s3.57-7.95,7.95-7.95,7.95,3.57,7.95,7.95c0,.9-.16,1.77-.44,2.58l12.27,12.27v-44.96c-2.64-1.3-4.46-4-4.46-7.14,0-4.39,3.57-7.95,7.95-7.95s7.95,3.57,7.95,7.95c0,3.13-1.82,5.84-4.46,7.14v31.54l12.21-12.21c-.24-.76-.37-1.57-.37-2.41,0-4.39,3.57-7.95,7.95-7.95s7.95,3.57,7.95,7.95-3.57,7.95-7.95,7.95c-.97,0-1.89-.18-2.75-.5l-17.04,17.04v11.98h37.25c3.2,0,5.82-2.62,5.82-5.82v-34.92c0-3.2-1.85-7.67-4.12-9.94Z"/>
  </g>
</svg>