<svg width="512" height="512" viewBox="0 0 512 512" fill="none" xmlns="http://www.w3.org/2000/svg">
<path d="M372.683 238.029L267.317 132.664C261.099 126.445 250.912 126.445 244.693 132.664L139.317 238.029C133.099 244.248 128 256.547 128 265.347V361.347C128 370.147 135.2 377.347 144 377.347H242.421L199.083 334.008C196.853 334.776 194.475 335.213 192 335.213C179.947 335.213 170.133 325.4 170.133 313.347C170.133 301.293 179.947 291.48 192 291.48C204.053 291.48 213.867 301.293 213.867 313.347C213.867 315.832 213.429 318.211 212.661 320.44L246.4 354.179V230.573C239.147 227.011 234.133 219.565 234.133 210.957C234.133 198.904 243.947 189.091 256 189.091C268.053 189.091 277.867 198.904 277.867 210.957C277.867 219.565 272.853 227.011 265.6 230.573V317.261L299.157 283.704C298.496 281.613 298.133 279.395 298.133 277.091C298.133 265.037 307.947 255.224 320 255.224C332.053 255.224 341.867 265.037 341.867 277.091C341.867 289.144 332.053 298.957 320 298.957C317.333 298.957 314.795 298.456 312.437 297.581L265.6 344.419V377.357H368C376.8 377.357 384 370.157 384 361.357V265.357C384 256.557 378.912 244.269 372.683 238.04V238.029Z" fill="#F2F4F9"/>
</svg>
